<svg width="152" height="25" viewBox="0 0 152 25" fill="none" xmlns="http://www.w3.org/2000/svg">
<path d="M2.158 22V4.996H7.592C8.77067 4.996 9.81067 5.126 10.712 5.386C11.6307 5.646 12.35 6.088 12.87 6.712C13.4073 7.31867 13.676 8.142 13.676 9.182C13.676 9.97933 13.468 10.7333 13.052 11.444C12.636 12.1373 12.0553 12.614 11.31 12.874V12.978C12.246 13.186 13.0173 13.628 13.624 14.304C14.248 14.9627 14.56 15.864 14.56 17.008C14.56 18.1347 14.274 19.0707 13.702 19.816C13.1473 20.5613 12.376 21.116 11.388 21.48C10.4 21.8267 9.282 22 8.034 22H2.158ZM5.174 12.016H7.332C8.51067 12.016 9.36867 11.7993 9.906 11.366C10.4433 10.9327 10.712 10.352 10.712 9.624C10.712 8.792 10.4347 8.20267 9.88 7.856C9.32533 7.50933 8.49333 7.336 7.384 7.336H5.174V12.016ZM5.174 19.66H7.722C8.97 19.66 9.932 19.4347 10.608 18.984C11.284 18.516 11.622 17.8053 11.622 16.852C11.622 15.9507 11.2927 15.3007 10.634 14.902C9.97533 14.486 9.00467 14.278 7.722 14.278H5.174V19.66ZM20.5057 22.312C19.3963 22.312 18.4863 21.9653 17.7757 21.272C17.0823 20.5787 16.7357 19.6773 16.7357 18.568C16.7357 17.1987 17.3337 16.1413 18.5297 15.396C19.7257 14.6333 21.6323 14.1133 24.2497 13.836C24.2323 13.16 24.0503 12.5793 23.7037 12.094C23.3743 11.5913 22.7763 11.34 21.9097 11.34C21.2857 11.34 20.6703 11.4613 20.0637 11.704C19.4743 11.9467 18.8937 12.2413 18.3217 12.588L17.2297 10.586C17.9403 10.1353 18.7377 9.74533 19.6217 9.416C20.523 9.08667 21.4763 8.922 22.4817 8.922C24.0763 8.922 25.2637 9.39867 26.0437 10.352C26.841 11.288 27.2397 12.6487 27.2397 14.434V22H24.7697L24.5617 20.596H24.4577C23.8857 21.0813 23.2703 21.4887 22.6117 21.818C21.9703 22.1473 21.2683 22.312 20.5057 22.312ZM21.4677 19.972C21.9877 19.972 22.4557 19.8507 22.8717 19.608C23.305 19.348 23.7643 19.0013 24.2497 18.568V15.708C22.5163 15.9333 21.3117 16.2713 20.6357 16.722C19.9597 17.1553 19.6217 17.6927 19.6217 18.334C19.6217 18.906 19.795 19.322 20.1417 19.582C20.4883 19.842 20.9303 19.972 21.4677 19.972ZM30.8179 22V9.234H33.2879L33.4959 11.496H33.5999C34.0506 10.664 34.5966 10.0313 35.2379 9.598C35.8793 9.14733 36.5379 8.922 37.2139 8.922C37.8206 8.922 38.3059 9.00867 38.6699 9.182L38.1499 11.782C37.9246 11.7127 37.7166 11.6607 37.5259 11.626C37.3353 11.5913 37.1013 11.574 36.8239 11.574C36.3213 11.574 35.7926 11.7733 35.2379 12.172C34.6833 12.5533 34.2066 13.2293 33.8079 14.2V22H30.8179ZM40.5171 22V3.644H43.4551V15.11H43.5331L48.2651 9.234H51.5411L47.1731 14.434L51.9831 22H48.7331L45.4571 16.462L43.4551 18.75V22H40.5171ZM57.6631 22.312C56.7965 22.312 55.9298 22.1473 55.0631 21.818C54.1965 21.4713 53.4511 21.0467 52.8271 20.544L54.2311 18.62C54.8031 19.0533 55.3751 19.4 55.9471 19.66C56.5191 19.92 57.1258 20.05 57.7671 20.05C58.4605 20.05 58.9718 19.9027 59.3011 19.608C59.6305 19.3133 59.7951 18.9493 59.7951 18.516C59.7951 18.152 59.6565 17.8573 59.3791 17.632C59.1191 17.3893 58.7811 17.1813 58.3651 17.008C57.9491 16.8173 57.5158 16.6353 57.0651 16.462C56.5105 16.254 55.9558 16.0027 55.4011 15.708C54.8638 15.396 54.4218 15.006 54.0751 14.538C53.7285 14.0527 53.5551 13.4547 53.5551 12.744C53.5551 11.6173 53.9711 10.6987 54.8031 9.988C55.6351 9.27733 56.7618 8.922 58.1831 8.922C59.0845 8.922 59.8905 9.078 60.6011 9.39C61.3118 9.702 61.9271 10.0573 62.4471 10.456L61.0691 12.276C60.6185 11.9467 60.1591 11.6867 59.6911 11.496C59.2405 11.288 58.7638 11.184 58.2611 11.184C57.6198 11.184 57.1431 11.3227 56.8311 11.6C56.5191 11.86 56.3631 12.1893 56.3631 12.588C56.3631 13.0907 56.6231 13.472 57.1431 13.732C57.6631 13.992 58.2698 14.2433 58.9631 14.486C59.5525 14.694 60.1245 14.954 60.6791 15.266C61.2338 15.5607 61.6931 15.9507 62.0571 16.436C62.4385 16.9213 62.6291 17.5627 62.6291 18.36C62.6291 19.452 62.2045 20.388 61.3551 21.168C60.5058 21.9307 59.2751 22.312 57.6631 22.312ZM68.3924 22.312C67.2831 22.312 66.3731 21.9653 65.6624 21.272C64.9691 20.5787 64.6224 19.6773 64.6224 18.568C64.6224 17.1987 65.2204 16.1413 66.4164 15.396C67.6124 14.6333 69.5191 14.1133 72.1364 13.836C72.1191 13.16 71.9371 12.5793 71.5904 12.094C71.2611 11.5913 70.6631 11.34 69.7964 11.34C69.1724 11.34 68.5571 11.4613 67.9504 11.704C67.3611 11.9467 66.7804 12.2413 66.2084 12.588L65.1164 10.586C65.8271 10.1353 66.6244 9.74533 67.5084 9.416C68.4097 9.08667 69.3631 8.922 70.3684 8.922C71.9631 8.922 73.1504 9.39867 73.9304 10.352C74.7277 11.288 75.1264 12.6487 75.1264 14.434V22H72.6564L72.4484 20.596H72.3444C71.7724 21.0813 71.1571 21.4887 70.4984 21.818C69.8571 22.1473 69.1551 22.312 68.3924 22.312ZM69.3544 19.972C69.8744 19.972 70.3424 19.8507 70.7584 19.608C71.1917 19.348 71.6511 19.0013 72.1364 18.568V15.708C70.4031 15.9333 69.1984 16.2713 68.5224 16.722C67.8464 17.1553 67.5084 17.6927 67.5084 18.334C67.5084 18.906 67.6817 19.322 68.0284 19.582C68.3751 19.842 68.8171 19.972 69.3544 19.972ZM81.6166 22.312C80.5593 22.312 79.8053 21.9913 79.3546 21.35C78.9213 20.7087 78.7046 19.8333 78.7046 18.724V3.644H81.6946V18.88C81.6946 19.244 81.764 19.504 81.9026 19.66C82.0413 19.7987 82.1886 19.868 82.3446 19.868C82.414 19.868 82.4746 19.868 82.5266 19.868C82.596 19.8507 82.6913 19.8333 82.8126 19.816L83.2026 22.052C83.0293 22.1213 82.804 22.182 82.5266 22.234C82.2666 22.286 81.9633 22.312 81.6166 22.312ZM90.9892 22.312C89.9319 22.312 88.9439 22.052 88.0252 21.532C87.1066 20.9947 86.3612 20.232 85.7892 19.244C85.2172 18.2387 84.9312 17.034 84.9312 15.63C84.9312 14.2087 85.2172 13.004 85.7892 12.016C86.3612 11.0107 87.1066 10.248 88.0252 9.728C88.9439 9.19067 89.9319 8.922 90.9892 8.922C92.0639 8.922 93.0606 9.19067 93.9792 9.728C94.8979 10.248 95.6432 11.0107 96.2152 12.016C96.7872 13.004 97.0732 14.2087 97.0732 15.63C97.0732 17.034 96.7872 18.2387 96.2152 19.244C95.6432 20.232 94.8979 20.9947 93.9792 21.532C93.0606 22.052 92.0639 22.312 90.9892 22.312ZM90.9892 19.868C91.9252 19.868 92.6619 19.478 93.1992 18.698C93.7366 17.918 94.0052 16.8953 94.0052 15.63C94.0052 14.3473 93.7366 13.316 93.1992 12.536C92.6619 11.756 91.9252 11.366 90.9892 11.366C90.0532 11.366 89.3166 11.756 88.7792 12.536C88.2592 13.316 87.9992 14.3473 87.9992 15.63C87.9992 16.8953 88.2592 17.918 88.7792 18.698C89.3166 19.478 90.0532 19.868 90.9892 19.868ZM103.947 22.312C102.473 22.312 101.425 21.8873 100.801 21.038C100.194 20.1713 99.8908 19.0533 99.8908 17.684V11.6H98.0708V9.364L100.047 9.234L100.411 5.75H102.907V9.234H106.157V11.6H102.907V17.684C102.907 19.1747 103.505 19.92 104.701 19.92C104.926 19.92 105.16 19.894 105.403 19.842C105.645 19.7727 105.853 19.7033 106.027 19.634L106.547 21.844C106.2 21.9653 105.801 22.0693 105.351 22.156C104.917 22.26 104.449 22.312 103.947 22.312Z" fill="black"/>
<g clip-path="url(#clip0_313_5)">
<path d="M131 3.5C130.204 3.5 129.441 3.81607 128.879 4.37868C128.316 4.94129 128 5.70435 128 6.5V18.515C128.004 19.308 128.322 20.0673 128.884 20.6266C129.446 21.186 130.207 21.5 131 21.5H139.25C139.449 21.5 139.64 21.421 139.78 21.2803C139.921 21.1397 140 20.9489 140 20.75C140 20.5511 139.921 20.3603 139.78 20.2197C139.64 20.079 139.449 20 139.25 20H131C130.67 20 130.349 19.8911 130.087 19.6902C129.825 19.4892 129.637 19.2074 129.551 18.8885L138.011 13.682L140 14.8745L150.5 8.5745V13.25C150.5 13.4489 150.579 13.6397 150.72 13.7803C150.86 13.921 151.051 14 151.25 14C151.449 14 151.64 13.921 151.78 13.7803C151.921 13.6397 152 13.4489 152 13.25V6.5C152 5.70435 151.684 4.94129 151.121 4.37868C150.559 3.81607 149.796 3.5 149 3.5H131ZM136.562 12.812L129.5 17.1575V8.5745L136.562 12.812ZM129.5 6.8255V6.5C129.5 6.10218 129.658 5.72064 129.939 5.43934C130.221 5.15804 130.602 5 131 5H149C149.398 5 149.779 5.15804 150.061 5.43934C150.342 5.72064 150.5 6.10218 150.5 6.5V6.8255L140 13.1255L129.5 6.8255Z" fill="#475AFF" fill-opacity="0.65"/>
<path d="M152 19.25C152 20.6424 151.447 21.9777 150.462 22.9623C149.478 23.9469 148.142 24.5 146.75 24.5C145.358 24.5 144.022 23.9469 143.038 22.9623C142.053 21.9777 141.5 20.6424 141.5 19.25C141.5 17.8576 142.053 16.5223 143.038 15.5377C144.022 14.5531 145.358 14 146.75 14C148.142 14 149.478 14.5531 150.462 15.5377C151.447 16.5223 152 17.8576 152 19.25ZM146.75 16.25C146.551 16.25 146.36 16.329 146.22 16.4697C146.079 16.6103 146 16.8011 146 17V18.5H144.5C144.301 18.5 144.11 18.579 143.97 18.7197C143.829 18.8603 143.75 19.0511 143.75 19.25C143.75 19.4489 143.829 19.6397 143.97 19.7803C144.11 19.921 144.301 20 144.5 20H146V21.5C146 21.6989 146.079 21.8897 146.22 22.0303C146.36 22.171 146.551 22.25 146.75 22.25C146.949 22.25 147.14 22.171 147.28 22.0303C147.421 21.8897 147.5 21.6989 147.5 21.5V20H149C149.199 20 149.39 19.921 149.53 19.7803C149.671 19.6397 149.75 19.4489 149.75 19.25C149.75 19.0511 149.671 18.8603 149.53 18.7197C149.39 18.579 149.199 18.5 149 18.5H147.5V17C147.5 16.8011 147.421 16.6103 147.28 16.4697C147.14 16.329 146.949 16.25 146.75 16.25Z" fill="#475AFF" fill-opacity="0.65"/>
</g>
<defs>
<clipPath id="clip0_313_5">
<rect width="24" height="24" fill="white" transform="translate(128 0.5)"/>
</clipPath>
</defs>
</svg>
